#!OML:ASF H:\GeneralSubjects\Female5\Project 1\Capture day 1\Session 1\Female5.ASF
:FULLY-SPECIFIED
:DEGREES
174
root 7.77525 15.9286 4.60128 -175.346 -43.8916 -175.479
lowerback 4.08423 1.38647 -1.48973
upperback -10.2289 1.26182 0.84868
thorax -13.4775 0.584666 1.62145
lowerneck -14.983 -4.65059 -2.8403
upperneck 35.8684 -10.6611 5.05698
head 15.6188 -5.07914 0.509418
rclavicle 4.45775e-014 1.07344e-014
rhumerus 3.70488 8.97728 -20.1905
rradius 104.941
rwrist 38.8918
rhand -64.1373 18.8524
rfingers 7.12502
rthumb -36.081 352.556
lclavicle 4.45775e-014 1.07344e-014
lhumerus -53.1265 14.6202 65.8718
lradius 33.872
lwrist -12.1076
lhand -24.7339 33.2054
lfingers 7.12502
lthumb 1.76859 63.1779
rfemur 10.8481 31.7468 35.2581
rtibia -5.92947
rfoot -58.7407 -33.6465
rtoes 25.9476
lfemur -4.34399 -45.3679 -15.3311
ltibia -2.76627
lfoot -23.7016 32.6036
ltoes -64.688
175
root 7.85131 15.9305 4.58305 -175.368 -43.8601 -175.321
lowerback 4.05905 1.3828 -1.35914
upperback -10.2399 1.27547 0.910691
thorax -13.4726 0.58065 1.61494
lowerneck -14.65 -4.62351 -3.0676
upperneck 35.5315 -10.6617 5.47572
head 15.4253 -5.06794 0.739361
rclavicle -4.19933e-014 -1.23246e-014
rhumerus 3.73317 4.64415 -21.596
rradius 103.667
rwrist 36.6379
rhand -63.0882 17.2447
rfingers 7.12502
rthumb -35.0866 350.709
lclavicle -4.19933e-014 -1.23246e-014
lhumerus -52.9731 14.4621 65.998
lradius 33.8637
lwrist -12.0281
lhand -24.8618 33.4828
lfingers 7.12502
lthumb 1.64504 63.4562
rfemur 11.1641 33.2096 36.076
rtibia -6.22938
rfoot -60.1751 -33.8827
rtoes 27.1197
lfemur -5.08447 -44.4536 -14.4886
ltibia -2.43149
lfoot -23.6745 31.5154
ltoes -64.1773
176
root 7.92532 15.9301 4.5637 -175.338 -43.8561 -175.293
lowerback 4.07055 1.35556 -1.2967
upperback -10.2869 1.24184 0.93763
thorax -13.5331 0.558067 1.61556
lowerneck -14.5268 -4.61316 -3.01904
upperneck 35.3865 -10.6311 5.47168
head 15.32 -5.05351 0.741473
rclavicle 3.13086e-014 -1.5704e-014
rhumerus 3.84826 -0.113284 -23.3205
rradius 102.197
rwrist 33.8425
rhand -61.4531 14.9595
rfingers 7.12502
rthumb -33.5341 348.073
lclavicle 3.13086e-014 -1.5704e-014
lhumerus -53.0384 14.1944 66.0978
lradius 34.0815
lwrist -11.7952
lhand -24.7426 34.5077
lfingers 7.12502
lthumb 1.76014 64.4802
rfemur 11.6173 34.7623 36.8741
rtibia -6.5379
rfoot -61.8748 -34.2005
rtoes 28.2332
lfemur -5.74316 -43.7105 -13.8526
ltibia -2.05519
lfoot -23.14 30.7375
ltoes -64.0534
177
root 8.00409 15.9281 4.54307 -175.364 -43.848 -175.226
lowerback 4.06803 1.34091 -1.24456
upperback -10.2825 1.22903 0.949769
thorax -13.5243 0.547253 1.60175
lowerneck -14.361 -4.59857 -2.96022
upperneck 35.1602 -10.6076 5.5405
head 15.1723 -5.03159 0.773402
rclavicle 1.97791e-014 -4.57205e-015
rhumerus 4.06552 -4.90412 -24.9711
rradius 100.58
rwrist 29.9356
rhand -59.508 12.9777
rfingers 7.12502
rthumb -31.6833 345.709
lclavicle 1.97791e-014 -4.57205e-015
lhumerus -52.9803 14.2003 66.0032
lradius 34.1605
lwrist -11.7947
lhand -24.6937 34.4799
lfingers 7.12502
lthumb 1.8074 64.452
rfemur 12.0869 36.4275 37.804
rtibia -6.67683
rfoot -63.7858 -34.6175
rtoes 28.9777
lfemur -6.26949 -43.4483 -13.2169
ltibia -1.75714
lfoot -23.0917 30.3598
ltoes -63.8902
178
root 8.08836 15.9254 4.52518 -175.401 -43.8946 -175.062
lowerback 4.10669 1.35285 -1.15771
upperback -10.3159 1.25299 0.961858
thorax -13.5871 0.549715 1.56275
lowerneck -14.3286 -4.61658 -2.95053
upperneck 35.096 -10.6898 5.68969
head 15.1517 -5.04779 0.819994
rclavicle 2.99171e-014 1.98785e-015
rhumerus 4.32155 -9.56458 -26.5442
rradius 98.8014
rwrist 24.886
rhand -60.5858 -1.08746
rfingers 7.12502
rthumb -32.7093 331.851
lclavicle 2.99171e-014 1.98785e-015
lhumerus -52.864 14.3313 65.858
lradius 34.2651
lwrist -12.0373
lhand -25.0194 33.0065
lfingers 7.12502
lthumb 1.4928 62.981
rfemur 12.4659 38.1822 38.8094
rtibia -6.70591
rfoot -65.8788 -34.838
rtoes 29.5757
lfemur -7.06549 -42.4073 -12.362
ltibia -1.42233
lfoot -21.5188 30.0539
ltoes -64.6068
179
root 8.16672 15.9225 4.50924 -175.371 -44.0505 -174.945
lowerback 4.11094 1.33026 -0.983784
upperback -10.3842 1.22906 0.917936
thorax -13.6631 0.514587 1.42196
lowerneck -14.2505 -4.66687 -2.977
upperneck 35.018 -10.837 5.89353
head 15.1256 -5.09334 0.884598
rclavicle -1.46107e-014 -1.05356e-014
rhumerus 4.67876 -14.2146 -28.3164
rradius 96.9761
rwrist 19.2484
rhand -60.1781 -11.3578
rfingers 7.12502
rthumb -32.3214 321.501
lclavicle -1.46107e-014 -1.05356e-014
lhumerus -52.8238 14.2626 65.8485
lradius 34.5806
lwrist -11.944
lhand -25.49 32.3389
lfingers 7.12502
lthumb 1.03833 62.3161
rfemur 12.9298 39.9408 39.7513
rtibia -6.84206
rfoot -68.0614 -35.0311
rtoes 30.5436
lfemur -8.09459 -40.9583 -11.5488
ltibia -0.830125
lfoot -19.6387 29.1308
ltoes -65.483
180
root 8.23684 15.9189 4.48811 -175.438 -44.1795 -174.826
lowerback 4.07841 1.30648 -0.774076
upperback -10.4173 1.21045 0.87113
thorax -13.6729 0.47867 1.25707
lowerneck -14.126 -4.65301 -2.99701
upperneck 34.9609 -10.881 6.06728
head 15.089 -5.10084 0.955684
rclavicle -4.76586e-014 -1.39149e-014
rhumerus 5.15039 -18.734 -30.0478
rradius 95.1828
rwrist 12.7884
rhand -59.221 -20.9829
rfingers 7.12502
rthumb -31.4099 311.695
lclavicle -4.76586e-014 -1.39149e-014
lhumerus -52.7753 14.0027 65.9717
lradius 34.9203
lwrist -11.4875
lhand -25.9387 32.5352
lfingers 7.12502
lthumb 0.604983 62.5141
rfemur 13.2699 39.8309 40.2528
rtibia -7.37846
rfoot -68.1628 -34.6636
rtoes 31.6464
lfemur -8.84602 -40.2253 -10.9158
ltibia -0.194553
lfoot -19.1093 28.2888
ltoes -65.8085
181
root 8.30753 15.9129 4.46445 -175.774 -44.2146 -174.533
lowerback 4.13761 1.306 -0.542206
upperback -10.3702 1.24614 0.910355
thorax -13.6487 0.476188 1.16354
lowerneck -14.1264 -4.62214 -2.94571
upperneck 34.9547 -10.8476 6.07238
head 15.081 -5.07881 0.955249
rclavicle -8.29429e-014 -3.18055e-014
rhumerus 5.91752 -23.2433 -31.6413
rradius 93.2493
rwrist 5.39519
rhand -58.1075 -29.5556
rfingers 7.12502
rthumb -30.3484 302.921
lclavicle -8.29429e-014 -3.18055e-014
lhumerus -52.6527 13.8613 66.1293
lradius 35.1975
lwrist -11.271
lhand -25.976 32.8695
lfingers 7.12502
lthumb 0.568917 62.8485
rfemur 13.8447 39.7727 41.084
rtibia -7.86093
rfoot -68.3763 -34.1377
rtoes 32.421
lfemur -9.31964 -39.5531 -10.2834
ltibia 0.403644
lfoot -18.5226 27.8655
ltoes -66.0727
182
root 8.38371 15.9087 4.44408 -176.019 -44.2535 -174.296
lowerback 4.21056 1.29972 -0.413942
upperback -10.3188 1.26542 0.968606
thorax -13.6316 0.478534 1.15118
lowerneck -14.1787 -4.65719 -2.89035
upperneck 34.8978 -10.8429 5.95212
head 15.0515 -5.07841 0.897089
rclavicle 2.52953e-014 1.19271e-014
rhumerus 6.90953 -27.7502 -33.2035
rradius 91.2937
rwrist -2.66935
rhand -57.0335 -36.8389
rfingers 7.12502
rthumb -29.3235 295.453
lclavicle 2.52953e-014 1.19271e-014
lhumerus -52.4507 13.8714 66.3061
lradius 35.318
lwrist -11.3007
lhand -25.4613 33.6553
lfingers 7.12502
lthumb 1.066 63.6324
rfemur 14.3328 39.7228 41.8011
rtibia -8.43601
rfoot -68.4378 -33.7448
rtoes 32.8965
lfemur -10.0762 -38.3797 -9.60614
ltibia 1.22939
lfoot -17.3464 27.2338
ltoes -66.4433
183
root 8.46335 15.9052 4.42322 -176.196 -44.3486 -173.994
lowerback 4.28075 1.29144 -0.264239
upperback -10.3484 1.27592 1.03259
thorax -13.7091 0.471261 1.13591
lowerneck -14.164 -4.73428 -2.95239
upperneck 34.7907 -10.9129 5.95714
head 15.0059 -5.11305 0.899449
rclavicle 7.11152e-014 1.59028e-014
rhumerus 7.71669 -32.0799 -34.5948
rradius 89.0399
rwrist -10.1679
rhand -56.0793 -39.3034
rfingers 7.12502
rthumb -28.412 292.833
lclavicle 7.11152e-014 1.59028e-014
lhumerus -52.2755 13.7212 66.5724
lradius 35.4147
lwrist -11.2311
lhand -25.383 33.6995
lfingers 7.12502
lthumb 1.14163 63.6762
rfemur 14.6643 39.6545 42.451
rtibia -9.08496
rfoot -68.4759 -33.3898
rtoes 33.7447
lfemur -11.088 -37.0456 -8.76246
ltibia 2.18621
lfoot -16.0368 26.4008
ltoes -67.0201
